<?xml version="1.0" encoding="utf-8" standalone="no"?>
<!DOCTYPE svg PUBLIC "-//W3C//DTD SVG 1.1//EN"
  "http://www.w3.org/Graphics/SVG/1.1/DTD/svg11.dtd">
<!-- Created with matplotlib (http://matplotlib.org/) -->
<svg height="345.6pt" version="1.1" viewBox="0 0 460.8 345.6" width="460.8pt" xmlns="http://www.w3.org/2000/svg" xmlns:xlink="http://www.w3.org/1999/xlink">
 <defs>
  <style type="text/css">
*{stroke-linecap:butt;stroke-linejoin:round;}
  </style>
 </defs>
 <g id="figure_1">
  <g id="patch_1">
   <path d="M 0 345.6 
L 460.8 345.6 
L 460.8 0 
L 0 0 
z
" style="fill:#ffffff;"/>
  </g>
  <g id="axes_1">
   <g id="patch_2">
    <path d="M 57.6 307.584 
L 414.72 307.584 
L 414.72 41.472 
L 57.6 41.472 
z
" style="fill:#ffffff;"/>
   </g>
   <g id="PathCollection_1">
    <defs>
     <path d="M 0 3 
C 0.795609 3 1.55874 2.683901 2.12132 2.12132 
C 2.683901 1.55874 3 0.795609 3 0 
C 3 -0.795609 2.683901 -1.55874 2.12132 -2.12132 
C 1.55874 -2.683901 0.795609 -3 0 -3 
C -0.795609 -3 -1.55874 -2.683901 -2.12132 -2.12132 
C -2.683901 -1.55874 -3 -0.795609 -3 0 
C -3 0.795609 -2.683901 1.55874 -2.12132 2.12132 
C -1.55874 2.683901 -0.795609 3 0 3 
z
" id="m0b2eebc638" style="stroke:#008000;"/>
    </defs>
    <g clip-path="url(#p61ccaa67e8)">
     <use style="fill:#008000;stroke:#008000;" x="75.966954" xlink:href="#m0b2eebc638" y="55.693516"/>
     <use style="fill:#008000;stroke:#008000;" x="79.203177" xlink:href="#m0b2eebc638" y="58.094222"/>
     <use style="fill:#008000;stroke:#008000;" x="82.439401" xlink:href="#m0b2eebc638" y="60.494905"/>
     <use style="fill:#008000;stroke:#008000;" x="85.675624" xlink:href="#m0b2eebc638" y="62.89561"/>
     <use style="fill:#008000;stroke:#008000;" x="88.911847" xlink:href="#m0b2eebc638" y="65.296293"/>
     <use style="fill:#008000;stroke:#008000;" x="92.148071" xlink:href="#m0b2eebc638" y="67.696999"/>
     <use style="fill:#008000;stroke:#008000;" x="95.384295" xlink:href="#m0b2eebc638" y="70.097704"/>
     <use style="fill:#008000;stroke:#008000;" x="98.620517" xlink:href="#m0b2eebc638" y="72.498387"/>
     <use style="fill:#008000;stroke:#008000;" x="101.856741" xlink:href="#m0b2eebc638" y="74.899093"/>
     <use style="fill:#008000;stroke:#008000;" x="105.092963" xlink:href="#m0b2eebc638" y="77.299776"/>
     <use style="fill:#008000;stroke:#008000;" x="108.329187" xlink:href="#m0b2eebc638" y="79.700481"/>
     <use style="fill:#008000;stroke:#008000;" x="111.565411" xlink:href="#m0b2eebc638" y="82.101187"/>
     <use style="fill:#008000;stroke:#008000;" x="114.801635" xlink:href="#m0b2eebc638" y="84.50187"/>
     <use style="fill:#008000;stroke:#008000;" x="118.037855" xlink:href="#m0b2eebc638" y="86.902575"/>
     <use style="fill:#008000;stroke:#008000;" x="121.274079" xlink:href="#m0b2eebc638" y="89.303258"/>
     <use style="fill:#008000;stroke:#008000;" x="124.510304" xlink:href="#m0b2eebc638" y="91.703964"/>
     <use style="fill:#008000;stroke:#008000;" x="127.746528" xlink:href="#m0b2eebc638" y="94.104669"/>
     <use style="fill:#008000;stroke:#008000;" x="130.982752" xlink:href="#m0b2eebc638" y="96.505352"/>
     <use style="fill:#008000;stroke:#008000;" x="134.218972" xlink:href="#m0b2eebc638" y="98.906058"/>
     <use style="fill:#008000;stroke:#008000;" x="137.455196" xlink:href="#m0b2eebc638" y="101.306741"/>
     <use style="fill:#008000;stroke:#008000;" x="140.69142" xlink:href="#m0b2eebc638" y="103.707446"/>
     <use style="fill:#008000;stroke:#008000;" x="143.92764" xlink:href="#m0b2eebc638" y="106.108152"/>
     <use style="fill:#008000;stroke:#008000;" x="147.163868" xlink:href="#m0b2eebc638" y="108.508835"/>
     <use style="fill:#008000;stroke:#008000;" x="150.400088" xlink:href="#m0b2eebc638" y="110.90954"/>
     <use style="fill:#008000;stroke:#008000;" x="153.636316" xlink:href="#m0b2eebc638" y="113.310223"/>
     <use style="fill:#008000;stroke:#008000;" x="156.872536" xlink:href="#m0b2eebc638" y="115.710929"/>
     <use style="fill:#008000;stroke:#008000;" x="160.108757" xlink:href="#m0b2eebc638" y="118.111635"/>
     <use style="fill:#008000;stroke:#008000;" x="163.344985" xlink:href="#m0b2eebc638" y="120.512317"/>
     <use style="fill:#008000;stroke:#008000;" x="166.581205" xlink:href="#m0b2eebc638" y="122.913023"/>
     <use style="fill:#008000;stroke:#008000;" x="169.817433" xlink:href="#m0b2eebc638" y="125.313706"/>
     <use style="fill:#008000;stroke:#008000;" x="173.053653" xlink:href="#m0b2eebc638" y="127.714411"/>
     <use style="fill:#008000;stroke:#008000;" x="176.289873" xlink:href="#m0b2eebc638" y="130.115117"/>
     <use style="fill:#008000;stroke:#008000;" x="179.526101" xlink:href="#m0b2eebc638" y="132.5158"/>
     <use style="fill:#008000;stroke:#008000;" x="182.762321" xlink:href="#m0b2eebc638" y="134.916506"/>
     <use style="fill:#008000;stroke:#008000;" x="185.998549" xlink:href="#m0b2eebc638" y="137.317188"/>
     <use style="fill:#008000;stroke:#008000;" x="189.234769" xlink:href="#m0b2eebc638" y="139.717894"/>
     <use style="fill:#008000;stroke:#008000;" x="192.47099" xlink:href="#m0b2eebc638" y="142.1186"/>
     <use style="fill:#008000;stroke:#008000;" x="195.707217" xlink:href="#m0b2eebc638" y="144.519283"/>
     <use style="fill:#008000;stroke:#008000;" x="198.943438" xlink:href="#m0b2eebc638" y="146.919988"/>
     <use style="fill:#008000;stroke:#008000;" x="202.179666" xlink:href="#m0b2eebc638" y="149.320671"/>
     <use style="fill:#008000;stroke:#008000;" x="205.415886" xlink:href="#m0b2eebc638" y="151.721377"/>
     <use style="fill:#008000;stroke:#008000;" x="208.652106" xlink:href="#m0b2eebc638" y="154.122082"/>
     <use style="fill:#008000;stroke:#008000;" x="211.888326" xlink:href="#m0b2eebc638" y="156.522765"/>
     <use style="fill:#008000;stroke:#008000;" x="215.124562" xlink:href="#m0b2eebc638" y="158.923471"/>
     <use style="fill:#008000;stroke:#008000;" x="218.360782" xlink:href="#m0b2eebc638" y="161.324154"/>
     <use style="fill:#008000;stroke:#008000;" x="221.597002" xlink:href="#m0b2eebc638" y="163.724859"/>
     <use style="fill:#008000;stroke:#008000;" x="224.833223" xlink:href="#m0b2eebc638" y="166.125565"/>
     <use style="fill:#008000;stroke:#008000;" x="228.069443" xlink:href="#m0b2eebc638" y="168.526248"/>
     <use style="fill:#008000;stroke:#008000;" x="231.305678" xlink:href="#m0b2eebc638" y="170.926953"/>
     <use style="fill:#008000;stroke:#008000;" x="234.541899" xlink:href="#m0b2eebc638" y="173.327636"/>
     <use style="fill:#008000;stroke:#008000;" x="237.778119" xlink:href="#m0b2eebc638" y="175.728342"/>
     <use style="fill:#008000;stroke:#008000;" x="241.014339" xlink:href="#m0b2eebc638" y="178.129047"/>
     <use style="fill:#008000;stroke:#008000;" x="244.250559" xlink:href="#m0b2eebc638" y="180.52973"/>
     <use style="fill:#008000;stroke:#008000;" x="247.486795" xlink:href="#m0b2eebc638" y="182.930436"/>
     <use style="fill:#008000;stroke:#008000;" x="250.723015" xlink:href="#m0b2eebc638" y="185.331119"/>
     <use style="fill:#008000;stroke:#008000;" x="253.959235" xlink:href="#m0b2eebc638" y="187.731824"/>
     <use style="fill:#008000;stroke:#008000;" x="257.195455" xlink:href="#m0b2eebc638" y="190.13253"/>
     <use style="fill:#008000;stroke:#008000;" x="260.431676" xlink:href="#m0b2eebc638" y="192.533213"/>
     <use style="fill:#008000;stroke:#008000;" x="263.667911" xlink:href="#m0b2eebc638" y="194.933918"/>
     <use style="fill:#008000;stroke:#008000;" x="266.904131" xlink:href="#m0b2eebc638" y="197.334601"/>
     <use style="fill:#008000;stroke:#008000;" x="270.140352" xlink:href="#m0b2eebc638" y="199.735307"/>
     <use style="fill:#008000;stroke:#008000;" x="273.376572" xlink:href="#m0b2eebc638" y="202.136013"/>
     <use style="fill:#008000;stroke:#008000;" x="276.612792" xlink:href="#m0b2eebc638" y="204.536695"/>
     <use style="fill:#008000;stroke:#008000;" x="279.849028" xlink:href="#m0b2eebc638" y="206.937401"/>
     <use style="fill:#008000;stroke:#008000;" x="283.085248" xlink:href="#m0b2eebc638" y="209.338084"/>
     <use style="fill:#008000;stroke:#008000;" x="286.321468" xlink:href="#m0b2eebc638" y="211.738789"/>
     <use style="fill:#008000;stroke:#008000;" x="289.557688" xlink:href="#m0b2eebc638" y="214.139495"/>
     <use style="fill:#008000;stroke:#008000;" x="292.793909" xlink:href="#m0b2eebc638" y="216.540178"/>
     <use style="fill:#008000;stroke:#008000;" x="296.030144" xlink:href="#m0b2eebc638" y="218.940884"/>
     <use style="fill:#008000;stroke:#008000;" x="299.266364" xlink:href="#m0b2eebc638" y="221.341566"/>
     <use style="fill:#008000;stroke:#008000;" x="302.502585" xlink:href="#m0b2eebc638" y="223.742272"/>
     <use style="fill:#008000;stroke:#008000;" x="305.738805" xlink:href="#m0b2eebc638" y="226.142966"/>
     <use style="fill:#008000;stroke:#008000;" x="308.975025" xlink:href="#m0b2eebc638" y="228.54366"/>
     <use style="fill:#008000;stroke:#008000;" x="312.211261" xlink:href="#m0b2eebc638" y="230.944366"/>
     <use style="fill:#008000;stroke:#008000;" x="315.447481" xlink:href="#m0b2eebc638" y="233.34506"/>
     <use style="fill:#008000;stroke:#008000;" x="318.683701" xlink:href="#m0b2eebc638" y="235.745755"/>
     <use style="fill:#008000;stroke:#008000;" x="321.919921" xlink:href="#m0b2eebc638" y="238.146449"/>
     <use style="fill:#008000;stroke:#008000;" x="325.156141" xlink:href="#m0b2eebc638" y="240.547143"/>
     <use style="fill:#008000;stroke:#008000;" x="328.392377" xlink:href="#m0b2eebc638" y="242.947849"/>
     <use style="fill:#008000;stroke:#008000;" x="331.628597" xlink:href="#m0b2eebc638" y="245.348543"/>
     <use style="fill:#008000;stroke:#008000;" x="334.864818" xlink:href="#m0b2eebc638" y="247.749237"/>
     <use style="fill:#008000;stroke:#008000;" x="338.101053" xlink:href="#m0b2eebc638" y="250.149931"/>
     <use style="fill:#008000;stroke:#008000;" x="341.337258" xlink:href="#m0b2eebc638" y="252.550626"/>
     <use style="fill:#008000;stroke:#008000;" x="344.573494" xlink:href="#m0b2eebc638" y="254.951331"/>
     <use style="fill:#008000;stroke:#008000;" x="347.809698" xlink:href="#m0b2eebc638" y="257.352025"/>
     <use style="fill:#008000;stroke:#008000;" x="351.045934" xlink:href="#m0b2eebc638" y="259.75272"/>
     <use style="fill:#008000;stroke:#008000;" x="354.28217" xlink:href="#m0b2eebc638" y="262.153414"/>
     <use style="fill:#008000;stroke:#008000;" x="357.518374" xlink:href="#m0b2eebc638" y="264.554108"/>
     <use style="fill:#008000;stroke:#008000;" x="360.75461" xlink:href="#m0b2eebc638" y="266.954814"/>
     <use style="fill:#008000;stroke:#008000;" x="363.990815" xlink:href="#m0b2eebc638" y="269.355508"/>
     <use style="fill:#008000;stroke:#008000;" x="367.22705" xlink:href="#m0b2eebc638" y="271.756202"/>
     <use style="fill:#008000;stroke:#008000;" x="370.463286" xlink:href="#m0b2eebc638" y="274.156897"/>
     <use style="fill:#008000;stroke:#008000;" x="373.699491" xlink:href="#m0b2eebc638" y="276.557591"/>
     <use style="fill:#008000;stroke:#008000;" x="376.935727" xlink:href="#m0b2eebc638" y="278.958296"/>
     <use style="fill:#008000;stroke:#008000;" x="380.171931" xlink:href="#m0b2eebc638" y="281.358991"/>
     <use style="fill:#008000;stroke:#008000;" x="383.408167" xlink:href="#m0b2eebc638" y="283.759685"/>
     <use style="fill:#008000;stroke:#008000;" x="386.644403" xlink:href="#m0b2eebc638" y="286.160379"/>
     <use style="fill:#008000;stroke:#008000;" x="389.880607" xlink:href="#m0b2eebc638" y="288.561073"/>
     <use style="fill:#008000;stroke:#008000;" x="393.116843" xlink:href="#m0b2eebc638" y="290.961779"/>
     <use style="fill:#008000;stroke:#008000;" x="396.353048" xlink:href="#m0b2eebc638" y="293.362473"/>
    </g>
   </g>
   <g id="PathCollection_2">
    <defs>
     <path d="M 0 3 
C 0.795609 3 1.55874 2.683901 2.12132 2.12132 
C 2.683901 1.55874 3 0.795609 3 0 
C 3 -0.795609 2.683901 -1.55874 2.12132 -2.12132 
C 1.55874 -2.683901 0.795609 -3 0 -3 
C -0.795609 -3 -1.55874 -2.683901 -2.12132 -2.12132 
C -2.683901 -1.55874 -3 -0.795609 -3 0 
C -3 0.795609 -2.683901 1.55874 -2.12132 2.12132 
C -1.55874 2.683901 -0.795609 3 0 3 
z
" id="m75329174ae" style="stroke:#0000ff;"/>
    </defs>
    <g clip-path="url(#p61ccaa67e8)">
     <use style="fill:#0000ff;stroke:#0000ff;" x="75.966933" xlink:href="#m75329174ae" y="55.693524"/>
     <use style="fill:#0000ff;stroke:#0000ff;" x="79.203183" xlink:href="#m75329174ae" y="58.094219"/>
     <use style="fill:#0000ff;stroke:#0000ff;" x="82.439399" xlink:href="#m75329174ae" y="60.494899"/>
     <use style="fill:#0000ff;stroke:#0000ff;" x="85.675613" xlink:href="#m75329174ae" y="62.895609"/>
     <use style="fill:#0000ff;stroke:#0000ff;" x="88.911861" xlink:href="#m75329174ae" y="65.296293"/>
     <use style="fill:#0000ff;stroke:#0000ff;" x="92.148063" xlink:href="#m75329174ae" y="67.696995"/>
     <use style="fill:#0000ff;stroke:#0000ff;" x="95.384314" xlink:href="#m75329174ae" y="70.097698"/>
     <use style="fill:#0000ff;stroke:#0000ff;" x="98.620517" xlink:href="#m75329174ae" y="72.498378"/>
     <use style="fill:#0000ff;stroke:#0000ff;" x="101.856743" xlink:href="#m75329174ae" y="74.8991"/>
     <use style="fill:#0000ff;stroke:#0000ff;" x="105.092962" xlink:href="#m75329174ae" y="77.299785"/>
     <use style="fill:#0000ff;stroke:#0000ff;" x="108.329202" xlink:href="#m75329174ae" y="79.700472"/>
     <use style="fill:#0000ff;stroke:#0000ff;" x="111.565413" xlink:href="#m75329174ae" y="82.101195"/>
     <use style="fill:#0000ff;stroke:#0000ff;" x="114.801618" xlink:href="#m75329174ae" y="84.501878"/>
     <use style="fill:#0000ff;stroke:#0000ff;" x="118.037835" xlink:href="#m75329174ae" y="86.902584"/>
     <use style="fill:#0000ff;stroke:#0000ff;" x="121.27408" xlink:href="#m75329174ae" y="89.303258"/>
     <use style="fill:#0000ff;stroke:#0000ff;" x="124.510309" xlink:href="#m75329174ae" y="91.703958"/>
     <use style="fill:#0000ff;stroke:#0000ff;" x="127.74653" xlink:href="#m75329174ae" y="94.104666"/>
     <use style="fill:#0000ff;stroke:#0000ff;" x="130.982765" xlink:href="#m75329174ae" y="96.505351"/>
     <use style="fill:#0000ff;stroke:#0000ff;" x="134.218959" xlink:href="#m75329174ae" y="98.906066"/>
     <use style="fill:#0000ff;stroke:#0000ff;" x="137.455201" xlink:href="#m75329174ae" y="101.306731"/>
     <use style="fill:#0000ff;stroke:#0000ff;" x="140.691433" xlink:href="#m75329174ae" y="103.707446"/>
     <use style="fill:#0000ff;stroke:#0000ff;" x="143.927647" xlink:href="#m75329174ae" y="106.108147"/>
     <use style="fill:#0000ff;stroke:#0000ff;" x="147.163867" xlink:href="#m75329174ae" y="108.508839"/>
     <use style="fill:#0000ff;stroke:#0000ff;" x="150.400085" xlink:href="#m75329174ae" y="110.909542"/>
     <use style="fill:#0000ff;stroke:#0000ff;" x="153.636328" xlink:href="#m75329174ae" y="113.310216"/>
     <use style="fill:#0000ff;stroke:#0000ff;" x="156.872518" xlink:href="#m75329174ae" y="115.710936"/>
     <use style="fill:#0000ff;stroke:#0000ff;" x="160.108749" xlink:href="#m75329174ae" y="118.111643"/>
     <use style="fill:#0000ff;stroke:#0000ff;" x="163.344984" xlink:href="#m75329174ae" y="120.512319"/>
     <use style="fill:#0000ff;stroke:#0000ff;" x="166.581218" xlink:href="#m75329174ae" y="122.913018"/>
     <use style="fill:#0000ff;stroke:#0000ff;" x="169.817425" xlink:href="#m75329174ae" y="125.313713"/>
     <use style="fill:#0000ff;stroke:#0000ff;" x="173.053662" xlink:href="#m75329174ae" y="127.714408"/>
     <use style="fill:#0000ff;stroke:#0000ff;" x="176.289856" xlink:href="#m75329174ae" y="130.115124"/>
     <use style="fill:#0000ff;stroke:#0000ff;" x="179.526091" xlink:href="#m75329174ae" y="132.515809"/>
     <use style="fill:#0000ff;stroke:#0000ff;" x="182.762306" xlink:href="#m75329174ae" y="134.916512"/>
     <use style="fill:#0000ff;stroke:#0000ff;" x="185.998562" xlink:href="#m75329174ae" y="137.317183"/>
     <use style="fill:#0000ff;stroke:#0000ff;" x="189.234771" xlink:href="#m75329174ae" y="139.717892"/>
     <use style="fill:#0000ff;stroke:#0000ff;" x="192.470971" xlink:href="#m75329174ae" y="142.118607"/>
     <use style="fill:#0000ff;stroke:#0000ff;" x="195.707214" xlink:href="#m75329174ae" y="144.519286"/>
     <use style="fill:#0000ff;stroke:#0000ff;" x="198.943432" xlink:href="#m75329174ae" y="146.919992"/>
     <use style="fill:#0000ff;stroke:#0000ff;" x="202.179663" xlink:href="#m75329174ae" y="149.320675"/>
     <use style="fill:#0000ff;stroke:#0000ff;" x="205.41588" xlink:href="#m75329174ae" y="151.721378"/>
     <use style="fill:#0000ff;stroke:#0000ff;" x="208.652095" xlink:href="#m75329174ae" y="154.122087"/>
     <use style="fill:#0000ff;stroke:#0000ff;" x="211.888314" xlink:href="#m75329174ae" y="156.522771"/>
     <use style="fill:#0000ff;stroke:#0000ff;" x="215.124578" xlink:href="#m75329174ae" y="158.923465"/>
     <use style="fill:#0000ff;stroke:#0000ff;" x="218.360798" xlink:href="#m75329174ae" y="161.324146"/>
     <use style="fill:#0000ff;stroke:#0000ff;" x="221.597004" xlink:href="#m75329174ae" y="163.724859"/>
     <use style="fill:#0000ff;stroke:#0000ff;" x="224.833209" xlink:href="#m75329174ae" y="166.12557"/>
     <use style="fill:#0000ff;stroke:#0000ff;" x="228.069433" xlink:href="#m75329174ae" y="168.526252"/>
     <use style="fill:#0000ff;stroke:#0000ff;" x="231.305681" xlink:href="#m75329174ae" y="170.926953"/>
     <use style="fill:#0000ff;stroke:#0000ff;" x="234.541914" xlink:href="#m75329174ae" y="173.327631"/>
     <use style="fill:#0000ff;stroke:#0000ff;" x="237.778134" xlink:href="#m75329174ae" y="175.728334"/>
     <use style="fill:#0000ff;stroke:#0000ff;" x="241.014355" xlink:href="#m75329174ae" y="178.129041"/>
     <use style="fill:#0000ff;stroke:#0000ff;" x="244.250549" xlink:href="#m75329174ae" y="180.529735"/>
     <use style="fill:#0000ff;stroke:#0000ff;" x="247.486788" xlink:href="#m75329174ae" y="182.930439"/>
     <use style="fill:#0000ff;stroke:#0000ff;" x="250.723012" xlink:href="#m75329174ae" y="185.33112"/>
     <use style="fill:#0000ff;stroke:#0000ff;" x="253.959233" xlink:href="#m75329174ae" y="187.731826"/>
     <use style="fill:#0000ff;stroke:#0000ff;" x="257.195442" xlink:href="#m75329174ae" y="190.132535"/>
     <use style="fill:#0000ff;stroke:#0000ff;" x="260.431676" xlink:href="#m75329174ae" y="192.533213"/>
     <use style="fill:#0000ff;stroke:#0000ff;" x="263.667898" xlink:href="#m75329174ae" y="194.933923"/>
     <use style="fill:#0000ff;stroke:#0000ff;" x="266.904118" xlink:href="#m75329174ae" y="197.334606"/>
     <use style="fill:#0000ff;stroke:#0000ff;" x="270.140353" xlink:href="#m75329174ae" y="199.735306"/>
     <use style="fill:#0000ff;stroke:#0000ff;" x="273.37654" xlink:href="#m75329174ae" y="202.136022"/>
     <use style="fill:#0000ff;stroke:#0000ff;" x="276.612805" xlink:href="#m75329174ae" y="204.536691"/>
     <use style="fill:#0000ff;stroke:#0000ff;" x="279.849057" xlink:href="#m75329174ae" y="206.937392"/>
     <use style="fill:#0000ff;stroke:#0000ff;" x="283.085273" xlink:href="#m75329174ae" y="209.338076"/>
     <use style="fill:#0000ff;stroke:#0000ff;" x="286.321501" xlink:href="#m75329174ae" y="211.738781"/>
     <use style="fill:#0000ff;stroke:#0000ff;" x="289.557712" xlink:href="#m75329174ae" y="214.139489"/>
     <use style="fill:#0000ff;stroke:#0000ff;" x="292.793903" xlink:href="#m75329174ae" y="216.540179"/>
     <use style="fill:#0000ff;stroke:#0000ff;" x="296.030172" xlink:href="#m75329174ae" y="218.940876"/>
     <use style="fill:#0000ff;stroke:#0000ff;" x="299.266369" xlink:href="#m75329174ae" y="221.341564"/>
     <use style="fill:#0000ff;stroke:#0000ff;" x="302.50256" xlink:href="#m75329174ae" y="223.742278"/>
     <use style="fill:#0000ff;stroke:#0000ff;" x="305.738804" xlink:href="#m75329174ae" y="226.142967"/>
     <use style="fill:#0000ff;stroke:#0000ff;" x="308.975012" xlink:href="#m75329174ae" y="228.543662"/>
     <use style="fill:#0000ff;stroke:#0000ff;" x="312.211276" xlink:href="#m75329174ae" y="230.944362"/>
     <use style="fill:#0000ff;stroke:#0000ff;" x="315.447506" xlink:href="#m75329174ae" y="233.345055"/>
     <use style="fill:#0000ff;stroke:#0000ff;" x="318.683685" xlink:href="#m75329174ae" y="235.745759"/>
     <use style="fill:#0000ff;stroke:#0000ff;" x="321.919947" xlink:href="#m75329174ae" y="238.146444"/>
     <use style="fill:#0000ff;stroke:#0000ff;" x="325.156161" xlink:href="#m75329174ae" y="240.547143"/>
     <use style="fill:#0000ff;stroke:#0000ff;" x="328.392364" xlink:href="#m75329174ae" y="242.94785"/>
     <use style="fill:#0000ff;stroke:#0000ff;" x="331.628596" xlink:href="#m75329174ae" y="245.348544"/>
     <use style="fill:#0000ff;stroke:#0000ff;" x="334.86479" xlink:href="#m75329174ae" y="247.749238"/>
     <use style="fill:#0000ff;stroke:#0000ff;" x="338.101056" xlink:href="#m75329174ae" y="250.149928"/>
     <use style="fill:#0000ff;stroke:#0000ff;" x="341.337288" xlink:href="#m75329174ae" y="252.550623"/>
     <use style="fill:#0000ff;stroke:#0000ff;" x="344.573485" xlink:href="#m75329174ae" y="254.951329"/>
     <use style="fill:#0000ff;stroke:#0000ff;" x="347.809721" xlink:href="#m75329174ae" y="257.352022"/>
     <use style="fill:#0000ff;stroke:#0000ff;" x="351.045969" xlink:href="#m75329174ae" y="259.752718"/>
     <use style="fill:#0000ff;stroke:#0000ff;" x="354.282196" xlink:href="#m75329174ae" y="262.153411"/>
     <use style="fill:#0000ff;stroke:#0000ff;" x="357.518408" xlink:href="#m75329174ae" y="264.554108"/>
     <use style="fill:#0000ff;stroke:#0000ff;" x="360.754626" xlink:href="#m75329174ae" y="266.954816"/>
     <use style="fill:#0000ff;stroke:#0000ff;" x="363.990779" xlink:href="#m75329174ae" y="269.355507"/>
     <use style="fill:#0000ff;stroke:#0000ff;" x="367.227054" xlink:href="#m75329174ae" y="271.756204"/>
     <use style="fill:#0000ff;stroke:#0000ff;" x="370.463273" xlink:href="#m75329174ae" y="274.156899"/>
     <use style="fill:#0000ff;stroke:#0000ff;" x="373.699477" xlink:href="#m75329174ae" y="276.557592"/>
     <use style="fill:#0000ff;stroke:#0000ff;" x="376.935729" xlink:href="#m75329174ae" y="278.958299"/>
     <use style="fill:#0000ff;stroke:#0000ff;" x="380.171914" xlink:href="#m75329174ae" y="281.358987"/>
     <use style="fill:#0000ff;stroke:#0000ff;" x="383.408165" xlink:href="#m75329174ae" y="283.759686"/>
     <use style="fill:#0000ff;stroke:#0000ff;" x="386.6444" xlink:href="#m75329174ae" y="286.16038"/>
     <use style="fill:#0000ff;stroke:#0000ff;" x="389.880599" xlink:href="#m75329174ae" y="288.561072"/>
     <use style="fill:#0000ff;stroke:#0000ff;" x="393.116833" xlink:href="#m75329174ae" y="290.961781"/>
     <use style="fill:#0000ff;stroke:#0000ff;" x="396.353067" xlink:href="#m75329174ae" y="293.362476"/>
    </g>
   </g>
   <g id="matplotlib.axis_1">
    <g id="xtick_1">
     <g id="line2d_1">
      <defs>
       <path d="M 0 0 
L 0 3.5 
" id="md5e3a329c2" style="stroke:#000000;stroke-width:0.8;"/>
      </defs>
      <g>
       <use style="stroke:#000000;stroke-width:0.8;" x="75.966954" xlink:href="#md5e3a329c2" y="307.584"/>
      </g>
     </g>
     <g id="text_1">
      <!-- 0 -->
      <defs>
       <path d="M 31.78125 66.40625 
Q 24.171875 66.40625 20.328125 58.90625 
Q 16.5 51.421875 16.5 36.375 
Q 16.5 21.390625 20.328125 13.890625 
Q 24.171875 6.390625 31.78125 6.390625 
Q 39.453125 6.390625 43.28125 13.890625 
Q 47.125 21.390625 47.125 36.375 
Q 47.125 51.421875 43.28125 58.90625 
Q 39.453125 66.40625 31.78125 66.40625 
z
M 31.78125 74.21875 
Q 44.046875 74.21875 50.515625 64.515625 
Q 56.984375 54.828125 56.984375 36.375 
Q 56.984375 17.96875 50.515625 8.265625 
Q 44.046875 -1.421875 31.78125 -1.421875 
Q 19.53125 -1.421875 13.0625 8.265625 
Q 6.59375 17.96875 6.59375 36.375 
Q 6.59375 54.828125 13.0625 64.515625 
Q 19.53125 74.21875 31.78125 74.21875 
z
" id="DejaVuSans-30"/>
      </defs>
      <g transform="translate(72.785704 322.182437)scale(0.1 -0.1)">
       <use xlink:href="#DejaVuSans-30"/>
      </g>
     </g>
    </g>
    <g id="xtick_2">
     <g id="line2d_2">
      <g>
       <use style="stroke:#000000;stroke-width:0.8;" x="140.69142" xlink:href="#md5e3a329c2" y="307.584"/>
      </g>
     </g>
     <g id="text_2">
      <!-- 2 -->
      <defs>
       <path d="M 19.1875 8.296875 
L 53.609375 8.296875 
L 53.609375 0 
L 7.328125 0 
L 7.328125 8.296875 
Q 12.9375 14.109375 22.625 23.890625 
Q 32.328125 33.6875 34.8125 36.53125 
Q 39.546875 41.84375 41.421875 45.53125 
Q 43.3125 49.21875 43.3125 52.78125 
Q 43.3125 58.59375 39.234375 62.25 
Q 35.15625 65.921875 28.609375 65.921875 
Q 23.96875 65.921875 18.8125 64.3125 
Q 13.671875 62.703125 7.8125 59.421875 
L 7.8125 69.390625 
Q 13.765625 71.78125 18.9375 73 
Q 24.125 74.21875 28.421875 74.21875 
Q 39.75 74.21875 46.484375 68.546875 
Q 53.21875 62.890625 53.21875 53.421875 
Q 53.21875 48.921875 51.53125 44.890625 
Q 49.859375 40.875 45.40625 35.40625 
Q 44.1875 33.984375 37.640625 27.21875 
Q 31.109375 20.453125 19.1875 8.296875 
z
" id="DejaVuSans-32"/>
      </defs>
      <g transform="translate(137.51017 322.182437)scale(0.1 -0.1)">
       <use xlink:href="#DejaVuSans-32"/>
      </g>
     </g>
    </g>
    <g id="xtick_3">
     <g id="line2d_3">
      <g>
       <use style="stroke:#000000;stroke-width:0.8;" x="205.415886" xlink:href="#md5e3a329c2" y="307.584"/>
      </g>
     </g>
     <g id="text_3">
      <!-- 4 -->
      <defs>
       <path d="M 37.796875 64.3125 
L 12.890625 25.390625 
L 37.796875 25.390625 
z
M 35.203125 72.90625 
L 47.609375 72.90625 
L 47.609375 25.390625 
L 58.015625 25.390625 
L 58.015625 17.1875 
L 47.609375 17.1875 
L 47.609375 0 
L 37.796875 0 
L 37.796875 17.1875 
L 4.890625 17.1875 
L 4.890625 26.703125 
z
" id="DejaVuSans-34"/>
      </defs>
      <g transform="translate(202.234636 322.182437)scale(0.1 -0.1)">
       <use xlink:href="#DejaVuSans-34"/>
      </g>
     </g>
    </g>
    <g id="xtick_4">
     <g id="line2d_4">
      <g>
       <use style="stroke:#000000;stroke-width:0.8;" x="270.140352" xlink:href="#md5e3a329c2" y="307.584"/>
      </g>
     </g>
     <g id="text_4">
      <!-- 6 -->
      <defs>
       <path d="M 33.015625 40.375 
Q 26.375 40.375 22.484375 35.828125 
Q 18.609375 31.296875 18.609375 23.390625 
Q 18.609375 15.53125 22.484375 10.953125 
Q 26.375 6.390625 33.015625 6.390625 
Q 39.65625 6.390625 43.53125 10.953125 
Q 47.40625 15.53125 47.40625 23.390625 
Q 47.40625 31.296875 43.53125 35.828125 
Q 39.65625 40.375 33.015625 40.375 
z
M 52.59375 71.296875 
L 52.59375 62.3125 
Q 48.875 64.0625 45.09375 64.984375 
Q 41.3125 65.921875 37.59375 65.921875 
Q 27.828125 65.921875 22.671875 59.328125 
Q 17.53125 52.734375 16.796875 39.40625 
Q 19.671875 43.65625 24.015625 45.921875 
Q 28.375 48.1875 33.59375 48.1875 
Q 44.578125 48.1875 50.953125 41.515625 
Q 57.328125 34.859375 57.328125 23.390625 
Q 57.328125 12.15625 50.6875 5.359375 
Q 44.046875 -1.421875 33.015625 -1.421875 
Q 20.359375 -1.421875 13.671875 8.265625 
Q 6.984375 17.96875 6.984375 36.375 
Q 6.984375 53.65625 15.1875 63.9375 
Q 23.390625 74.21875 37.203125 74.21875 
Q 40.921875 74.21875 44.703125 73.484375 
Q 48.484375 72.75 52.59375 71.296875 
z
" id="DejaVuSans-36"/>
      </defs>
      <g transform="translate(266.959102 322.182437)scale(0.1 -0.1)">
       <use xlink:href="#DejaVuSans-36"/>
      </g>
     </g>
    </g>
    <g id="xtick_5">
     <g id="line2d_5">
      <g>
       <use style="stroke:#000000;stroke-width:0.8;" x="334.864818" xlink:href="#md5e3a329c2" y="307.584"/>
      </g>
     </g>
     <g id="text_5">
      <!-- 8 -->
      <defs>
       <path d="M 31.78125 34.625 
Q 24.75 34.625 20.71875 30.859375 
Q 16.703125 27.09375 16.703125 20.515625 
Q 16.703125 13.921875 20.71875 10.15625 
Q 24.75 6.390625 31.78125 6.390625 
Q 38.8125 6.390625 42.859375 10.171875 
Q 46.921875 13.96875 46.921875 20.515625 
Q 46.921875 27.09375 42.890625 30.859375 
Q 38.875 34.625 31.78125 34.625 
z
M 21.921875 38.8125 
Q 15.578125 40.375 12.03125 44.71875 
Q 8.5 49.078125 8.5 55.328125 
Q 8.5 64.0625 14.71875 69.140625 
Q 20.953125 74.21875 31.78125 74.21875 
Q 42.671875 74.21875 48.875 69.140625 
Q 55.078125 64.0625 55.078125 55.328125 
Q 55.078125 49.078125 51.53125 44.71875 
Q 48 40.375 41.703125 38.8125 
Q 48.828125 37.15625 52.796875 32.3125 
Q 56.78125 27.484375 56.78125 20.515625 
Q 56.78125 9.90625 50.3125 4.234375 
Q 43.84375 -1.421875 31.78125 -1.421875 
Q 19.734375 -1.421875 13.25 4.234375 
Q 6.78125 9.90625 6.78125 20.515625 
Q 6.78125 27.484375 10.78125 32.3125 
Q 14.796875 37.15625 21.921875 38.8125 
z
M 18.3125 54.390625 
Q 18.3125 48.734375 21.84375 45.5625 
Q 25.390625 42.390625 31.78125 42.390625 
Q 38.140625 42.390625 41.71875 45.5625 
Q 45.3125 48.734375 45.3125 54.390625 
Q 45.3125 60.0625 41.71875 63.234375 
Q 38.140625 66.40625 31.78125 66.40625 
Q 25.390625 66.40625 21.84375 63.234375 
Q 18.3125 60.0625 18.3125 54.390625 
z
" id="DejaVuSans-38"/>
      </defs>
      <g transform="translate(331.683568 322.182437)scale(0.1 -0.1)">
       <use xlink:href="#DejaVuSans-38"/>
      </g>
     </g>
    </g>
    <g id="xtick_6">
     <g id="line2d_6">
      <g>
       <use style="stroke:#000000;stroke-width:0.8;" x="399.589283" xlink:href="#md5e3a329c2" y="307.584"/>
      </g>
     </g>
     <g id="text_6">
      <!-- 10 -->
      <defs>
       <path d="M 12.40625 8.296875 
L 28.515625 8.296875 
L 28.515625 63.921875 
L 10.984375 60.40625 
L 10.984375 69.390625 
L 28.421875 72.90625 
L 38.28125 72.90625 
L 38.28125 8.296875 
L 54.390625 8.296875 
L 54.390625 0 
L 12.40625 0 
z
" id="DejaVuSans-31"/>
      </defs>
      <g transform="translate(393.226783 322.182437)scale(0.1 -0.1)">
       <use xlink:href="#DejaVuSans-31"/>
       <use x="63.623047" xlink:href="#DejaVuSans-30"/>
      </g>
     </g>
    </g>
   </g>
   <g id="matplotlib.axis_2">
    <g id="ytick_1">
     <g id="line2d_7">
      <defs>
       <path d="M 0 0 
L -3.5 0 
" id="mcbdf285580" style="stroke:#000000;stroke-width:0.8;"/>
      </defs>
      <g>
       <use style="stroke:#000000;stroke-width:0.8;" x="57.6" xlink:href="#mcbdf285580" y="271.756202"/>
      </g>
     </g>
     <g id="text_7">
      <!-- 6 -->
      <g transform="translate(44.2375 275.555421)scale(0.1 -0.1)">
       <use xlink:href="#DejaVuSans-36"/>
      </g>
     </g>
    </g>
    <g id="ytick_2">
     <g id="line2d_8">
      <g>
       <use style="stroke:#000000;stroke-width:0.8;" x="57.6" xlink:href="#mcbdf285580" y="223.742272"/>
      </g>
     </g>
     <g id="text_8">
      <!-- 8 -->
      <g transform="translate(44.2375 227.541491)scale(0.1 -0.1)">
       <use xlink:href="#DejaVuSans-38"/>
      </g>
     </g>
    </g>
    <g id="ytick_3">
     <g id="line2d_9">
      <g>
       <use style="stroke:#000000;stroke-width:0.8;" x="57.6" xlink:href="#mcbdf285580" y="175.728342"/>
      </g>
     </g>
     <g id="text_9">
      <!-- 10 -->
      <g transform="translate(37.875 179.527561)scale(0.1 -0.1)">
       <use xlink:href="#DejaVuSans-31"/>
       <use x="63.623047" xlink:href="#DejaVuSans-30"/>
      </g>
     </g>
    </g>
    <g id="ytick_4">
     <g id="line2d_10">
      <g>
       <use style="stroke:#000000;stroke-width:0.8;" x="57.6" xlink:href="#mcbdf285580" y="127.714411"/>
      </g>
     </g>
     <g id="text_10">
      <!-- 12 -->
      <g transform="translate(37.875 131.51363)scale(0.1 -0.1)">
       <use xlink:href="#DejaVuSans-31"/>
       <use x="63.623047" xlink:href="#DejaVuSans-32"/>
      </g>
     </g>
    </g>
    <g id="ytick_5">
     <g id="line2d_11">
      <g>
       <use style="stroke:#000000;stroke-width:0.8;" x="57.6" xlink:href="#mcbdf285580" y="79.700481"/>
      </g>
     </g>
     <g id="text_11">
      <!-- 14 -->
      <g transform="translate(37.875 83.4997)scale(0.1 -0.1)">
       <use xlink:href="#DejaVuSans-31"/>
       <use x="63.623047" xlink:href="#DejaVuSans-34"/>
      </g>
     </g>
    </g>
   </g>
   <g id="patch_3">
    <path d="M 57.6 307.584 
L 57.6 41.472 
" style="fill:none;stroke:#000000;stroke-linecap:square;stroke-linejoin:miter;stroke-width:0.8;"/>
   </g>
   <g id="patch_4">
    <path d="M 414.72 307.584 
L 414.72 41.472 
" style="fill:none;stroke:#000000;stroke-linecap:square;stroke-linejoin:miter;stroke-width:0.8;"/>
   </g>
   <g id="patch_5">
    <path d="M 57.6 307.584 
L 414.72 307.584 
" style="fill:none;stroke:#000000;stroke-linecap:square;stroke-linejoin:miter;stroke-width:0.8;"/>
   </g>
   <g id="patch_6">
    <path d="M 57.6 41.472 
L 414.72 41.472 
" style="fill:none;stroke:#000000;stroke-linecap:square;stroke-linejoin:miter;stroke-width:0.8;"/>
   </g>
   <g id="text_12">
    <!-- Verifying Workspace Points -->
    <defs>
     <path d="M 28.609375 0 
L 0.78125 72.90625 
L 11.078125 72.90625 
L 34.1875 11.53125 
L 57.328125 72.90625 
L 67.578125 72.90625 
L 39.796875 0 
z
" id="DejaVuSans-56"/>
     <path d="M 56.203125 29.59375 
L 56.203125 25.203125 
L 14.890625 25.203125 
Q 15.484375 15.921875 20.484375 11.0625 
Q 25.484375 6.203125 34.421875 6.203125 
Q 39.59375 6.203125 44.453125 7.46875 
Q 49.3125 8.734375 54.109375 11.28125 
L 54.109375 2.78125 
Q 49.265625 0.734375 44.1875 -0.34375 
Q 39.109375 -1.421875 33.890625 -1.421875 
Q 20.796875 -1.421875 13.15625 6.1875 
Q 5.515625 13.8125 5.515625 26.8125 
Q 5.515625 40.234375 12.765625 48.109375 
Q 20.015625 56 32.328125 56 
Q 43.359375 56 49.78125 48.890625 
Q 56.203125 41.796875 56.203125 29.59375 
z
M 47.21875 32.234375 
Q 47.125 39.59375 43.09375 43.984375 
Q 39.0625 48.390625 32.421875 48.390625 
Q 24.90625 48.390625 20.390625 44.140625 
Q 15.875 39.890625 15.1875 32.171875 
z
" id="DejaVuSans-65"/>
     <path d="M 41.109375 46.296875 
Q 39.59375 47.171875 37.8125 47.578125 
Q 36.03125 48 33.890625 48 
Q 26.265625 48 22.1875 43.046875 
Q 18.109375 38.09375 18.109375 28.8125 
L 18.109375 0 
L 9.078125 0 
L 9.078125 54.6875 
L 18.109375 54.6875 
L 18.109375 46.1875 
Q 20.953125 51.171875 25.484375 53.578125 
Q 30.03125 56 36.53125 56 
Q 37.453125 56 38.578125 55.875 
Q 39.703125 55.765625 41.0625 55.515625 
z
" id="DejaVuSans-72"/>
     <path d="M 9.421875 54.6875 
L 18.40625 54.6875 
L 18.40625 0 
L 9.421875 0 
z
M 9.421875 75.984375 
L 18.40625 75.984375 
L 18.40625 64.59375 
L 9.421875 64.59375 
z
" id="DejaVuSans-69"/>
     <path d="M 37.109375 75.984375 
L 37.109375 68.5 
L 28.515625 68.5 
Q 23.6875 68.5 21.796875 66.546875 
Q 19.921875 64.59375 19.921875 59.515625 
L 19.921875 54.6875 
L 34.71875 54.6875 
L 34.71875 47.703125 
L 19.921875 47.703125 
L 19.921875 0 
L 10.890625 0 
L 10.890625 47.703125 
L 2.296875 47.703125 
L 2.296875 54.6875 
L 10.890625 54.6875 
L 10.890625 58.5 
Q 10.890625 67.625 15.140625 71.796875 
Q 19.390625 75.984375 28.609375 75.984375 
z
" id="DejaVuSans-66"/>
     <path d="M 32.171875 -5.078125 
Q 28.375 -14.84375 24.75 -17.8125 
Q 21.140625 -20.796875 15.09375 -20.796875 
L 7.90625 -20.796875 
L 7.90625 -13.28125 
L 13.1875 -13.28125 
Q 16.890625 -13.28125 18.9375 -11.515625 
Q 21 -9.765625 23.484375 -3.21875 
L 25.09375 0.875 
L 2.984375 54.6875 
L 12.5 54.6875 
L 29.59375 11.921875 
L 46.6875 54.6875 
L 56.203125 54.6875 
z
" id="DejaVuSans-79"/>
     <path d="M 54.890625 33.015625 
L 54.890625 0 
L 45.90625 0 
L 45.90625 32.71875 
Q 45.90625 40.484375 42.875 44.328125 
Q 39.84375 48.1875 33.796875 48.1875 
Q 26.515625 48.1875 22.3125 43.546875 
Q 18.109375 38.921875 18.109375 30.90625 
L 18.109375 0 
L 9.078125 0 
L 9.078125 54.6875 
L 18.109375 54.6875 
L 18.109375 46.1875 
Q 21.34375 51.125 25.703125 53.5625 
Q 30.078125 56 35.796875 56 
Q 45.21875 56 50.046875 50.171875 
Q 54.890625 44.34375 54.890625 33.015625 
z
" id="DejaVuSans-6e"/>
     <path d="M 45.40625 27.984375 
Q 45.40625 37.75 41.375 43.109375 
Q 37.359375 48.484375 30.078125 48.484375 
Q 22.859375 48.484375 18.828125 43.109375 
Q 14.796875 37.75 14.796875 27.984375 
Q 14.796875 18.265625 18.828125 12.890625 
Q 22.859375 7.515625 30.078125 7.515625 
Q 37.359375 7.515625 41.375 12.890625 
Q 45.40625 18.265625 45.40625 27.984375 
z
M 54.390625 6.78125 
Q 54.390625 -7.171875 48.1875 -13.984375 
Q 42 -20.796875 29.203125 -20.796875 
Q 24.46875 -20.796875 20.265625 -20.09375 
Q 16.0625 -19.390625 12.109375 -17.921875 
L 12.109375 -9.1875 
Q 16.0625 -11.328125 19.921875 -12.34375 
Q 23.78125 -13.375 27.78125 -13.375 
Q 36.625 -13.375 41.015625 -8.765625 
Q 45.40625 -4.15625 45.40625 5.171875 
L 45.40625 9.625 
Q 42.625 4.78125 38.28125 2.390625 
Q 33.9375 0 27.875 0 
Q 17.828125 0 11.671875 7.65625 
Q 5.515625 15.328125 5.515625 27.984375 
Q 5.515625 40.671875 11.671875 48.328125 
Q 17.828125 56 27.875 56 
Q 33.9375 56 38.28125 53.609375 
Q 42.625 51.21875 45.40625 46.390625 
L 45.40625 54.6875 
L 54.390625 54.6875 
z
" id="DejaVuSans-67"/>
     <path id="DejaVuSans-20"/>
     <path d="M 3.328125 72.90625 
L 13.28125 72.90625 
L 28.609375 11.28125 
L 43.890625 72.90625 
L 54.984375 72.90625 
L 70.3125 11.28125 
L 85.59375 72.90625 
L 95.609375 72.90625 
L 77.296875 0 
L 64.890625 0 
L 49.515625 63.28125 
L 33.984375 0 
L 21.578125 0 
z
" id="DejaVuSans-57"/>
     <path d="M 30.609375 48.390625 
Q 23.390625 48.390625 19.1875 42.75 
Q 14.984375 37.109375 14.984375 27.296875 
Q 14.984375 17.484375 19.15625 11.84375 
Q 23.34375 6.203125 30.609375 6.203125 
Q 37.796875 6.203125 41.984375 11.859375 
Q 46.1875 17.53125 46.1875 27.296875 
Q 46.1875 37.015625 41.984375 42.703125 
Q 37.796875 48.390625 30.609375 48.390625 
z
M 30.609375 56 
Q 42.328125 56 49.015625 48.375 
Q 55.71875 40.765625 55.71875 27.296875 
Q 55.71875 13.875 49.015625 6.21875 
Q 42.328125 -1.421875 30.609375 -1.421875 
Q 18.84375 -1.421875 12.171875 6.21875 
Q 5.515625 13.875 5.515625 27.296875 
Q 5.515625 40.765625 12.171875 48.375 
Q 18.84375 56 30.609375 56 
z
" id="DejaVuSans-6f"/>
     <path d="M 9.078125 75.984375 
L 18.109375 75.984375 
L 18.109375 31.109375 
L 44.921875 54.6875 
L 56.390625 54.6875 
L 27.390625 29.109375 
L 57.625 0 
L 45.90625 0 
L 18.109375 26.703125 
L 18.109375 0 
L 9.078125 0 
z
" id="DejaVuSans-6b"/>
     <path d="M 44.28125 53.078125 
L 44.28125 44.578125 
Q 40.484375 46.53125 36.375 47.5 
Q 32.28125 48.484375 27.875 48.484375 
Q 21.1875 48.484375 17.84375 46.4375 
Q 14.5 44.390625 14.5 40.28125 
Q 14.5 37.15625 16.890625 35.375 
Q 19.28125 33.59375 26.515625 31.984375 
L 29.59375 31.296875 
Q 39.15625 29.25 43.1875 25.515625 
Q 47.21875 21.78125 47.21875 15.09375 
Q 47.21875 7.46875 41.1875 3.015625 
Q 35.15625 -1.421875 24.609375 -1.421875 
Q 20.21875 -1.421875 15.453125 -0.5625 
Q 10.6875 0.296875 5.421875 2 
L 5.421875 11.28125 
Q 10.40625 8.6875 15.234375 7.390625 
Q 20.0625 6.109375 24.8125 6.109375 
Q 31.15625 6.109375 34.5625 8.28125 
Q 37.984375 10.453125 37.984375 14.40625 
Q 37.984375 18.0625 35.515625 20.015625 
Q 33.0625 21.96875 24.703125 23.78125 
L 21.578125 24.515625 
Q 13.234375 26.265625 9.515625 29.90625 
Q 5.8125 33.546875 5.8125 39.890625 
Q 5.8125 47.609375 11.28125 51.796875 
Q 16.75 56 26.8125 56 
Q 31.78125 56 36.171875 55.265625 
Q 40.578125 54.546875 44.28125 53.078125 
z
" id="DejaVuSans-73"/>
     <path d="M 18.109375 8.203125 
L 18.109375 -20.796875 
L 9.078125 -20.796875 
L 9.078125 54.6875 
L 18.109375 54.6875 
L 18.109375 46.390625 
Q 20.953125 51.265625 25.265625 53.625 
Q 29.59375 56 35.59375 56 
Q 45.5625 56 51.78125 48.09375 
Q 58.015625 40.1875 58.015625 27.296875 
Q 58.015625 14.40625 51.78125 6.484375 
Q 45.5625 -1.421875 35.59375 -1.421875 
Q 29.59375 -1.421875 25.265625 0.953125 
Q 20.953125 3.328125 18.109375 8.203125 
z
M 48.6875 27.296875 
Q 48.6875 37.203125 44.609375 42.84375 
Q 40.53125 48.484375 33.40625 48.484375 
Q 26.265625 48.484375 22.1875 42.84375 
Q 18.109375 37.203125 18.109375 27.296875 
Q 18.109375 17.390625 22.1875 11.75 
Q 26.265625 6.109375 33.40625 6.109375 
Q 40.53125 6.109375 44.609375 11.75 
Q 48.6875 17.390625 48.6875 27.296875 
z
" id="DejaVuSans-70"/>
     <path d="M 34.28125 27.484375 
Q 23.390625 27.484375 19.1875 25 
Q 14.984375 22.515625 14.984375 16.5 
Q 14.984375 11.71875 18.140625 8.90625 
Q 21.296875 6.109375 26.703125 6.109375 
Q 34.1875 6.109375 38.703125 11.40625 
Q 43.21875 16.703125 43.21875 25.484375 
L 43.21875 27.484375 
z
M 52.203125 31.203125 
L 52.203125 0 
L 43.21875 0 
L 43.21875 8.296875 
Q 40.140625 3.328125 35.546875 0.953125 
Q 30.953125 -1.421875 24.3125 -1.421875 
Q 15.921875 -1.421875 10.953125 3.296875 
Q 6 8.015625 6 15.921875 
Q 6 25.140625 12.171875 29.828125 
Q 18.359375 34.515625 30.609375 34.515625 
L 43.21875 34.515625 
L 43.21875 35.40625 
Q 43.21875 41.609375 39.140625 45 
Q 35.0625 48.390625 27.6875 48.390625 
Q 23 48.390625 18.546875 47.265625 
Q 14.109375 46.140625 10.015625 43.890625 
L 10.015625 52.203125 
Q 14.9375 54.109375 19.578125 55.046875 
Q 24.21875 56 28.609375 56 
Q 40.484375 56 46.34375 49.84375 
Q 52.203125 43.703125 52.203125 31.203125 
z
" id="DejaVuSans-61"/>
     <path d="M 48.78125 52.59375 
L 48.78125 44.1875 
Q 44.96875 46.296875 41.140625 47.34375 
Q 37.3125 48.390625 33.40625 48.390625 
Q 24.65625 48.390625 19.8125 42.84375 
Q 14.984375 37.3125 14.984375 27.296875 
Q 14.984375 17.28125 19.8125 11.734375 
Q 24.65625 6.203125 33.40625 6.203125 
Q 37.3125 6.203125 41.140625 7.25 
Q 44.96875 8.296875 48.78125 10.40625 
L 48.78125 2.09375 
Q 45.015625 0.34375 40.984375 -0.53125 
Q 36.96875 -1.421875 32.421875 -1.421875 
Q 20.0625 -1.421875 12.78125 6.34375 
Q 5.515625 14.109375 5.515625 27.296875 
Q 5.515625 40.671875 12.859375 48.328125 
Q 20.21875 56 33.015625 56 
Q 37.15625 56 41.109375 55.140625 
Q 45.0625 54.296875 48.78125 52.59375 
z
" id="DejaVuSans-63"/>
     <path d="M 19.671875 64.796875 
L 19.671875 37.40625 
L 32.078125 37.40625 
Q 38.96875 37.40625 42.71875 40.96875 
Q 46.484375 44.53125 46.484375 51.125 
Q 46.484375 57.671875 42.71875 61.234375 
Q 38.96875 64.796875 32.078125 64.796875 
z
M 9.8125 72.90625 
L 32.078125 72.90625 
Q 44.34375 72.90625 50.609375 67.359375 
Q 56.890625 61.8125 56.890625 51.125 
Q 56.890625 40.328125 50.609375 34.8125 
Q 44.34375 29.296875 32.078125 29.296875 
L 19.671875 29.296875 
L 19.671875 0 
L 9.8125 0 
z
" id="DejaVuSans-50"/>
     <path d="M 18.3125 70.21875 
L 18.3125 54.6875 
L 36.8125 54.6875 
L 36.8125 47.703125 
L 18.3125 47.703125 
L 18.3125 18.015625 
Q 18.3125 11.328125 20.140625 9.421875 
Q 21.96875 7.515625 27.59375 7.515625 
L 36.8125 7.515625 
L 36.8125 0 
L 27.59375 0 
Q 17.1875 0 13.234375 3.875 
Q 9.28125 7.765625 9.28125 18.015625 
L 9.28125 47.703125 
L 2.6875 47.703125 
L 2.6875 54.6875 
L 9.28125 54.6875 
L 9.28125 70.21875 
z
" id="DejaVuSans-74"/>
    </defs>
    <g transform="translate(154.10625 35.472)scale(0.12 -0.12)">
     <use xlink:href="#DejaVuSans-56"/>
     <use x="68.298828" xlink:href="#DejaVuSans-65"/>
     <use x="129.822266" xlink:href="#DejaVuSans-72"/>
     <use x="170.935547" xlink:href="#DejaVuSans-69"/>
     <use x="198.71875" xlink:href="#DejaVuSans-66"/>
     <use x="233.908203" xlink:href="#DejaVuSans-79"/>
     <use x="293.087891" xlink:href="#DejaVuSans-69"/>
     <use x="320.871094" xlink:href="#DejaVuSans-6e"/>
     <use x="384.25" xlink:href="#DejaVuSans-67"/>
     <use x="447.726562" xlink:href="#DejaVuSans-20"/>
     <use x="479.513672" xlink:href="#DejaVuSans-57"/>
     <use x="578.3125" xlink:href="#DejaVuSans-6f"/>
     <use x="639.494141" xlink:href="#DejaVuSans-72"/>
     <use x="680.607422" xlink:href="#DejaVuSans-6b"/>
     <use x="738.517578" xlink:href="#DejaVuSans-73"/>
     <use x="790.617188" xlink:href="#DejaVuSans-70"/>
     <use x="854.09375" xlink:href="#DejaVuSans-61"/>
     <use x="915.373047" xlink:href="#DejaVuSans-63"/>
     <use x="970.353516" xlink:href="#DejaVuSans-65"/>
     <use x="1031.876953" xlink:href="#DejaVuSans-20"/>
     <use x="1063.664062" xlink:href="#DejaVuSans-50"/>
     <use x="1123.919922" xlink:href="#DejaVuSans-6f"/>
     <use x="1185.101562" xlink:href="#DejaVuSans-69"/>
     <use x="1212.884766" xlink:href="#DejaVuSans-6e"/>
     <use x="1276.263672" xlink:href="#DejaVuSans-74"/>
     <use x="1315.472656" xlink:href="#DejaVuSans-73"/>
    </g>
   </g>
   <g id="legend_1">
    <g id="patch_7">
     <path d="M 231.787187 78.82825 
L 407.72 78.82825 
Q 409.72 78.82825 409.72 76.82825 
L 409.72 48.472 
Q 409.72 46.472 407.72 46.472 
L 231.787187 46.472 
Q 229.787187 46.472 229.787187 48.472 
L 229.787187 76.82825 
Q 229.787187 78.82825 231.787187 78.82825 
z
" style="fill:#ffffff;opacity:0.8;stroke:#cccccc;stroke-linejoin:miter;"/>
    </g>
    <g id="PathCollection_3">
     <g>
      <use style="fill:#008000;stroke:#008000;" x="243.787187" xlink:href="#m0b2eebc638" y="55.445437"/>
     </g>
    </g>
    <g id="text_13">
     <!-- Workspace Points -->
     <g transform="translate(261.787187 58.070437)scale(0.1 -0.1)">
      <use xlink:href="#DejaVuSans-57"/>
      <use x="98.798828" xlink:href="#DejaVuSans-6f"/>
      <use x="159.980469" xlink:href="#DejaVuSans-72"/>
      <use x="201.09375" xlink:href="#DejaVuSans-6b"/>
      <use x="259.003906" xlink:href="#DejaVuSans-73"/>
      <use x="311.103516" xlink:href="#DejaVuSans-70"/>
      <use x="374.580078" xlink:href="#DejaVuSans-61"/>
      <use x="435.859375" xlink:href="#DejaVuSans-63"/>
      <use x="490.839844" xlink:href="#DejaVuSans-65"/>
      <use x="552.363281" xlink:href="#DejaVuSans-20"/>
      <use x="584.150391" xlink:href="#DejaVuSans-50"/>
      <use x="644.40625" xlink:href="#DejaVuSans-6f"/>
      <use x="705.587891" xlink:href="#DejaVuSans-69"/>
      <use x="733.371094" xlink:href="#DejaVuSans-6e"/>
      <use x="796.75" xlink:href="#DejaVuSans-74"/>
      <use x="835.958984" xlink:href="#DejaVuSans-73"/>
     </g>
    </g>
    <g id="PathCollection_4">
     <g>
      <use style="fill:#0000ff;stroke:#0000ff;" x="243.787187" xlink:href="#m75329174ae" y="70.123562"/>
     </g>
    </g>
    <g id="text_14">
     <!-- Computed Workspace Points -->
     <defs>
      <path d="M 64.40625 67.28125 
L 64.40625 56.890625 
Q 59.421875 61.53125 53.78125 63.8125 
Q 48.140625 66.109375 41.796875 66.109375 
Q 29.296875 66.109375 22.65625 58.46875 
Q 16.015625 50.828125 16.015625 36.375 
Q 16.015625 21.96875 22.65625 14.328125 
Q 29.296875 6.6875 41.796875 6.6875 
Q 48.140625 6.6875 53.78125 8.984375 
Q 59.421875 11.28125 64.40625 15.921875 
L 64.40625 5.609375 
Q 59.234375 2.09375 53.4375 0.328125 
Q 47.65625 -1.421875 41.21875 -1.421875 
Q 24.65625 -1.421875 15.125 8.703125 
Q 5.609375 18.84375 5.609375 36.375 
Q 5.609375 53.953125 15.125 64.078125 
Q 24.65625 74.21875 41.21875 74.21875 
Q 47.75 74.21875 53.53125 72.484375 
Q 59.328125 70.75 64.40625 67.28125 
z
" id="DejaVuSans-43"/>
      <path d="M 52 44.1875 
Q 55.375 50.25 60.0625 53.125 
Q 64.75 56 71.09375 56 
Q 79.640625 56 84.28125 50.015625 
Q 88.921875 44.046875 88.921875 33.015625 
L 88.921875 0 
L 79.890625 0 
L 79.890625 32.71875 
Q 79.890625 40.578125 77.09375 44.375 
Q 74.3125 48.1875 68.609375 48.1875 
Q 61.625 48.1875 57.5625 43.546875 
Q 53.515625 38.921875 53.515625 30.90625 
L 53.515625 0 
L 44.484375 0 
L 44.484375 32.71875 
Q 44.484375 40.625 41.703125 44.40625 
Q 38.921875 48.1875 33.109375 48.1875 
Q 26.21875 48.1875 22.15625 43.53125 
Q 18.109375 38.875 18.109375 30.90625 
L 18.109375 0 
L 9.078125 0 
L 9.078125 54.6875 
L 18.109375 54.6875 
L 18.109375 46.1875 
Q 21.1875 51.21875 25.484375 53.609375 
Q 29.78125 56 35.6875 56 
Q 41.65625 56 45.828125 52.96875 
Q 50 49.953125 52 44.1875 
z
" id="DejaVuSans-6d"/>
      <path d="M 8.5 21.578125 
L 8.5 54.6875 
L 17.484375 54.6875 
L 17.484375 21.921875 
Q 17.484375 14.15625 20.5 10.265625 
Q 23.53125 6.390625 29.59375 6.390625 
Q 36.859375 6.390625 41.078125 11.03125 
Q 45.3125 15.671875 45.3125 23.6875 
L 45.3125 54.6875 
L 54.296875 54.6875 
L 54.296875 0 
L 45.3125 0 
L 45.3125 8.40625 
Q 42.046875 3.421875 37.71875 1 
Q 33.40625 -1.421875 27.6875 -1.421875 
Q 18.265625 -1.421875 13.375 4.4375 
Q 8.5 10.296875 8.5 21.578125 
z
M 31.109375 56 
z
" id="DejaVuSans-75"/>
      <path d="M 45.40625 46.390625 
L 45.40625 75.984375 
L 54.390625 75.984375 
L 54.390625 0 
L 45.40625 0 
L 45.40625 8.203125 
Q 42.578125 3.328125 38.25 0.953125 
Q 33.9375 -1.421875 27.875 -1.421875 
Q 17.96875 -1.421875 11.734375 6.484375 
Q 5.515625 14.40625 5.515625 27.296875 
Q 5.515625 40.1875 11.734375 48.09375 
Q 17.96875 56 27.875 56 
Q 33.9375 56 38.25 53.625 
Q 42.578125 51.265625 45.40625 46.390625 
z
M 14.796875 27.296875 
Q 14.796875 17.390625 18.875 11.75 
Q 22.953125 6.109375 30.078125 6.109375 
Q 37.203125 6.109375 41.296875 11.75 
Q 45.40625 17.390625 45.40625 27.296875 
Q 45.40625 37.203125 41.296875 42.84375 
Q 37.203125 48.484375 30.078125 48.484375 
Q 22.953125 48.484375 18.875 42.84375 
Q 14.796875 37.203125 14.796875 27.296875 
z
" id="DejaVuSans-64"/>
     </defs>
     <g transform="translate(261.787187 72.748562)scale(0.1 -0.1)">
      <use xlink:href="#DejaVuSans-43"/>
      <use x="69.824219" xlink:href="#DejaVuSans-6f"/>
      <use x="131.005859" xlink:href="#DejaVuSans-6d"/>
      <use x="228.417969" xlink:href="#DejaVuSans-70"/>
      <use x="291.894531" xlink:href="#DejaVuSans-75"/>
      <use x="355.273438" xlink:href="#DejaVuSans-74"/>
      <use x="394.482422" xlink:href="#DejaVuSans-65"/>
      <use x="456.005859" xlink:href="#DejaVuSans-64"/>
      <use x="519.482422" xlink:href="#DejaVuSans-20"/>
      <use x="551.269531" xlink:href="#DejaVuSans-57"/>
      <use x="650.068359" xlink:href="#DejaVuSans-6f"/>
      <use x="711.25" xlink:href="#DejaVuSans-72"/>
      <use x="752.363281" xlink:href="#DejaVuSans-6b"/>
      <use x="810.273438" xlink:href="#DejaVuSans-73"/>
      <use x="862.373047" xlink:href="#DejaVuSans-70"/>
      <use x="925.849609" xlink:href="#DejaVuSans-61"/>
      <use x="987.128906" xlink:href="#DejaVuSans-63"/>
      <use x="1042.109375" xlink:href="#DejaVuSans-65"/>
      <use x="1103.632812" xlink:href="#DejaVuSans-20"/>
      <use x="1135.419922" xlink:href="#DejaVuSans-50"/>
      <use x="1195.675781" xlink:href="#DejaVuSans-6f"/>
      <use x="1256.857422" xlink:href="#DejaVuSans-69"/>
      <use x="1284.640625" xlink:href="#DejaVuSans-6e"/>
      <use x="1348.019531" xlink:href="#DejaVuSans-74"/>
      <use x="1387.228516" xlink:href="#DejaVuSans-73"/>
     </g>
    </g>
   </g>
  </g>
 </g>
 <defs>
  <clipPath id="p61ccaa67e8">
   <rect height="266.112" width="357.12" x="57.6" y="41.472"/>
  </clipPath>
 </defs>
</svg>
